<svg width="32" height="32" viewBox="0 0 32 32" fill="none" xmlns="http://www.w3.org/2000/svg">
  <defs>
    <linearGradient id="bgGradient" x1="0%" y1="0%" x2="100%" y2="100%">
      <stop offset="0%" style="stop-color:#2563eb"/>
      <stop offset="100%" style="stop-color:#1d4ed8"/>
    </linearGradient>
  </defs>
  <rect width="32" height="32" rx="8" fill="url(#bgGradient)"/>
  <g stroke="white" stroke-width="2" stroke-linecap="round" stroke-linejoin="round" fill="none">
    <path d="M6 15 L8 13"/>
    <path d="M8 13 L16 5 L24 13"/>
    <path d="M8 13 L8 23 C8 23.5523 8.44772 24 9 24 L13 24"/>
    <path d="M24 13 L26 15"/>
    <path d="M24 13 L24 23 C24 23.5523 23.5523 24 23 24 L19 24"/>
    <path d="M13 24 C13.5523 24 14 23.5523 14 23 L14 19 C14 18.4477 14.4477 18 15 18 L17 18 C17.5523 18 18 18.4477 18 19 L18 23 C18 23.5523 18.4477 24 19 24"/>
    <path d="M13 24 L19 24"/>
  </g>
</svg>
